<svg width="351" height="71" viewBox="0 0 351 71" fill="none" xmlns="http://www.w3.org/2000/svg">
<g clip-path="url(#clip0)">
<path d="M48.2803 46.1737H0.589686L24.435 21.9499L30.1973 27.8037L18.914 39.2661L18.5006 39.686H19.0899H41.894L48.2803 46.1737Z" fill="#047CC7" stroke="#0469A9" stroke-width="0.493628"/>
<path d="M55.2497 34.1838L76.7948 12.6387L82.6514 18.4953L55.0752 46.0715L27.499 18.4953L33.3555 12.6387L54.9006 34.1838L55.0752 34.3584L55.2497 34.1838Z" fill="#10853D" stroke="#0E7937" stroke-width="0.493628"/>
<path d="M120.448 38.6H102.592L98.8964 47H93.9524L109.168 13.4H113.92L129.184 47H124.144L120.448 38.6ZM118.768 34.76L111.52 18.296L104.272 34.76H118.768ZM131.049 31.832H143.961V35.816H131.049V31.832ZM179.787 13.4L165.051 47H160.299L145.515 13.4H150.699L162.795 41L174.987 13.4H179.787ZM199.189 40.52H184.549L181.669 47H177.109L189.589 19.736H194.197L206.725 47H202.021L199.189 40.52ZM197.557 36.824L191.893 23.96L186.181 36.824H197.557ZM235.584 19.736V47H231.744L216 27.752V47H211.344V19.736H215.184L230.928 39.08V19.736H235.584ZM249.754 23.576H240.442V19.736H263.722V23.576H254.41V47H249.754V23.576ZM284.267 40.52H269.627L266.747 47H262.187L274.667 19.736H279.275L291.803 47H287.099L284.267 40.52ZM282.635 36.824L276.971 23.96L271.259 36.824H282.635ZM314.433 33.224H318.945V43.88C317.633 45 316.049 45.864 314.193 46.472C312.337 47.08 310.417 47.384 308.433 47.384C305.585 47.384 303.009 46.776 300.705 45.56C298.433 44.344 296.641 42.68 295.329 40.568C294.049 38.424 293.409 36.024 293.409 33.368C293.409 30.712 294.049 28.328 295.329 26.216C296.609 24.072 298.385 22.392 300.657 21.176C302.929 19.96 305.457 19.352 308.241 19.352C313.041 19.352 316.705 20.776 319.233 23.624L316.257 26.648C314.177 24.472 311.537 23.384 308.337 23.384C306.385 23.384 304.625 23.816 303.057 24.68C301.521 25.512 300.305 26.696 299.409 28.232C298.545 29.736 298.113 31.448 298.113 33.368C298.113 35.256 298.545 36.968 299.409 38.504C300.305 40.008 301.537 41.192 303.105 42.056C304.705 42.92 306.497 43.352 308.481 43.352C310.785 43.352 312.769 42.84 314.433 41.816V33.224ZM347.808 43.112V47H327.36V19.736H347.28V23.576H332.016V31.256H345.6V35.048H332.016V43.112H347.808Z" fill="#10853D"/>
<path d="M102.216 61.192C102.867 61.3733 103.379 61.704 103.752 62.184C104.126 62.6533 104.312 63.2507 104.312 63.976C104.312 64.9467 103.944 65.6933 103.208 66.216C102.483 66.7387 101.422 67 100.024 67H94.6804V55.8H99.7044C100.984 55.8 101.971 56.056 102.664 56.568C103.368 57.08 103.72 57.7893 103.72 58.696C103.72 59.2827 103.582 59.7893 103.304 60.216C103.038 60.6427 102.675 60.968 102.216 61.192ZM96.2804 57.096V60.68H99.5604C100.382 60.68 101.011 60.5307 101.448 60.232C101.896 59.9227 102.12 59.4747 102.12 58.888C102.12 58.3013 101.896 57.8587 101.448 57.56C101.011 57.2507 100.382 57.096 99.5604 57.096H96.2804ZM99.9604 65.704C100.867 65.704 101.55 65.5547 102.008 65.256C102.467 64.9573 102.696 64.488 102.696 63.848C102.696 62.6 101.784 61.976 99.9604 61.976H96.2804V65.704H99.9604ZM114.43 62.808C114.43 62.9253 114.419 63.08 114.398 63.272H107.518C107.614 64.0187 107.939 64.6213 108.494 65.08C109.059 65.528 109.758 65.752 110.59 65.752C111.603 65.752 112.419 65.4107 113.038 64.728L113.886 65.72C113.502 66.168 113.022 66.5093 112.446 66.744C111.88 66.9787 111.246 67.096 110.542 67.096C109.646 67.096 108.851 66.9147 108.158 66.552C107.464 66.1787 106.926 65.6613 106.542 65C106.168 64.3387 105.982 63.592 105.982 62.76C105.982 61.9387 106.163 61.1973 106.526 60.536C106.899 59.8747 107.406 59.3627 108.046 59C108.696 58.6267 109.427 58.44 110.238 58.44C111.048 58.44 111.768 58.6267 112.398 59C113.038 59.3627 113.534 59.8747 113.886 60.536C114.248 61.1973 114.43 61.9547 114.43 62.808ZM110.238 59.736C109.502 59.736 108.883 59.96 108.382 60.408C107.891 60.856 107.603 61.4427 107.518 62.168H112.958C112.872 61.4533 112.579 60.872 112.078 60.424C111.587 59.9653 110.974 59.736 110.238 59.736ZM121.531 66.504C121.307 66.696 121.029 66.8453 120.699 66.952C120.368 67.048 120.027 67.096 119.675 67.096C118.821 67.096 118.16 66.8667 117.691 66.408C117.221 65.9493 116.987 65.2933 116.987 64.44V59.784H115.547V58.52H116.987V56.664H118.523V58.52H120.955V59.784H118.523V64.376C118.523 64.8347 118.635 65.1867 118.859 65.432C119.093 65.6773 119.424 65.8 119.851 65.8C120.32 65.8 120.72 65.6667 121.051 65.4L121.531 66.504ZM128.153 66.504C127.929 66.696 127.651 66.8453 127.321 66.952C126.99 67.048 126.649 67.096 126.297 67.096C125.443 67.096 124.782 66.8667 124.313 66.408C123.843 65.9493 123.609 65.2933 123.609 64.44V59.784H122.169V58.52H123.609V56.664H125.145V58.52H127.577V59.784H125.145V64.376C125.145 64.8347 125.257 65.1867 125.481 65.432C125.715 65.6773 126.046 65.8 126.473 65.8C126.942 65.8 127.342 65.6667 127.673 65.4L128.153 66.504ZM137.592 62.808C137.592 62.9253 137.582 63.08 137.56 63.272H130.68C130.776 64.0187 131.102 64.6213 131.656 65.08C132.222 65.528 132.92 65.752 133.752 65.752C134.766 65.752 135.582 65.4107 136.2 64.728L137.048 65.72C136.664 66.168 136.184 66.5093 135.608 66.744C135.043 66.9787 134.408 67.096 133.704 67.096C132.808 67.096 132.014 66.9147 131.32 66.552C130.627 66.1787 130.088 65.6613 129.704 65C129.331 64.3387 129.144 63.592 129.144 62.76C129.144 61.9387 129.326 61.1973 129.688 60.536C130.062 59.8747 130.568 59.3627 131.208 59C131.859 58.6267 132.59 58.44 133.4 58.44C134.211 58.44 134.931 58.6267 135.56 59C136.2 59.3627 136.696 59.8747 137.048 60.536C137.411 61.1973 137.592 61.9547 137.592 62.808ZM133.4 59.736C132.664 59.736 132.046 59.96 131.544 60.408C131.054 60.856 130.766 61.4427 130.68 62.168H136.12C136.035 61.4533 135.742 60.872 135.24 60.424C134.75 59.9653 134.136 59.736 133.4 59.736ZM141.397 59.944C141.664 59.4533 142.058 59.08 142.581 58.824C143.104 58.568 143.738 58.44 144.485 58.44V59.928C144.4 59.9173 144.282 59.912 144.133 59.912C143.301 59.912 142.645 60.1627 142.165 60.664C141.696 61.1547 141.461 61.8587 141.461 62.776V67H139.925V58.52H141.397V59.944ZM162.945 68.024C162.582 68.4507 162.161 68.776 161.681 69C161.201 69.224 160.683 69.336 160.129 69.336C159.425 69.336 158.763 69.1653 158.145 68.824C157.537 68.4933 156.838 67.9227 156.049 67.112C154.993 67.0587 154.038 66.776 153.185 66.264C152.342 65.752 151.681 65.0747 151.201 64.232C150.731 63.3787 150.497 62.4347 150.497 61.4C150.497 60.3227 150.753 59.3467 151.265 58.472C151.787 57.5973 152.502 56.9147 153.409 56.424C154.315 55.9227 155.334 55.672 156.465 55.672C157.585 55.672 158.598 55.9227 159.505 56.424C160.411 56.9147 161.121 57.5973 161.633 58.472C162.145 59.336 162.401 60.312 162.401 61.4C162.401 62.3173 162.214 63.16 161.841 63.928C161.478 64.696 160.961 65.3413 160.289 65.864C159.627 66.3867 158.865 66.7493 158.001 66.952C158.374 67.3467 158.731 67.6293 159.073 67.8C159.425 67.9813 159.782 68.072 160.145 68.072C160.934 68.072 161.617 67.752 162.193 67.112L162.945 68.024ZM152.097 61.4C152.097 62.2107 152.283 62.9467 152.657 63.608C153.041 64.2587 153.563 64.7707 154.225 65.144C154.897 65.5173 155.643 65.704 156.465 65.704C157.275 65.704 158.011 65.5173 158.673 65.144C159.334 64.7707 159.851 64.2587 160.225 63.608C160.609 62.9467 160.801 62.2107 160.801 61.4C160.801 60.5893 160.609 59.8587 160.225 59.208C159.851 58.5467 159.334 58.0293 158.673 57.656C158.011 57.2827 157.275 57.096 156.465 57.096C155.643 57.096 154.897 57.2827 154.225 57.656C153.563 58.0293 153.041 58.5467 152.657 59.208C152.283 59.8587 152.097 60.5893 152.097 61.4ZM172.726 58.52V67H171.27V65.72C170.961 66.1573 170.55 66.4987 170.038 66.744C169.537 66.9787 168.987 67.096 168.39 67.096C167.259 67.096 166.369 66.7867 165.718 66.168C165.067 65.5387 164.742 64.616 164.742 63.4V58.52H166.278V63.224C166.278 64.0453 166.475 64.6693 166.87 65.096C167.265 65.512 167.83 65.72 168.566 65.72C169.377 65.72 170.017 65.4747 170.486 64.984C170.955 64.4933 171.19 63.8 171.19 62.904V58.52H172.726ZM178.938 58.44C180.111 58.44 181.007 58.728 181.626 59.304C182.255 59.88 182.57 60.7387 182.57 61.88V67H181.114V65.88C180.858 66.2747 180.49 66.5787 180.01 66.792C179.541 66.9947 178.981 67.096 178.33 67.096C177.381 67.096 176.618 66.8667 176.042 66.408C175.477 65.9493 175.194 65.3467 175.194 64.6C175.194 63.8533 175.466 63.256 176.01 62.808C176.554 62.3493 177.418 62.12 178.602 62.12H181.034V61.816C181.034 61.1547 180.842 60.648 180.458 60.296C180.074 59.944 179.509 59.768 178.762 59.768C178.261 59.768 177.77 59.8533 177.29 60.024C176.81 60.184 176.405 60.4027 176.074 60.68L175.434 59.528C175.871 59.176 176.394 58.9093 177.002 58.728C177.61 58.536 178.255 58.44 178.938 58.44ZM178.586 65.912C179.173 65.912 179.679 65.784 180.106 65.528C180.533 65.2613 180.842 64.888 181.034 64.408V63.224H178.666C177.365 63.224 176.714 63.6613 176.714 64.536C176.714 64.9627 176.879 65.2987 177.21 65.544C177.541 65.7893 177.999 65.912 178.586 65.912ZM185.613 55.128H187.149V67H185.613V55.128ZM190.281 58.52H191.817V67H190.281V58.52ZM191.049 56.888C190.751 56.888 190.5 56.792 190.297 56.6C190.105 56.408 190.009 56.1733 190.009 55.896C190.009 55.6187 190.105 55.384 190.297 55.192C190.5 54.9893 190.751 54.888 191.049 54.888C191.348 54.888 191.593 54.984 191.785 55.176C191.988 55.3573 192.089 55.5867 192.089 55.864C192.089 56.152 191.988 56.3973 191.785 56.6C191.593 56.792 191.348 56.888 191.049 56.888ZM199.718 66.504C199.494 66.696 199.217 66.8453 198.886 66.952C198.555 67.048 198.214 67.096 197.862 67.096C197.009 67.096 196.347 66.8667 195.878 66.408C195.409 65.9493 195.174 65.2933 195.174 64.44V59.784H193.734V58.52H195.174V56.664H196.71V58.52H199.142V59.784H196.71V64.376C196.71 64.8347 196.822 65.1867 197.046 65.432C197.281 65.6773 197.611 65.8 198.038 65.8C198.507 65.8 198.907 65.6667 199.238 65.4L199.718 66.504ZM209.123 58.52L205.011 67.848C204.648 68.712 204.222 69.32 203.731 69.672C203.251 70.024 202.67 70.2 201.987 70.2C201.571 70.2 201.166 70.1307 200.771 69.992C200.387 69.864 200.067 69.672 199.811 69.416L200.467 68.264C200.904 68.68 201.411 68.888 201.987 68.888C202.36 68.888 202.67 68.7867 202.915 68.584C203.171 68.392 203.4 68.056 203.603 67.576L203.875 66.984L200.131 58.52H201.731L204.691 65.304L207.619 58.52H209.123ZM215.253 58.52H216.789V67H215.253V58.52ZM216.021 56.888C215.723 56.888 215.472 56.792 215.269 56.6C215.077 56.408 214.981 56.1733 214.981 55.896C214.981 55.6187 215.077 55.384 215.269 55.192C215.472 54.9893 215.723 54.888 216.021 54.888C216.32 54.888 216.565 54.984 216.757 55.176C216.96 55.3573 217.061 55.5867 217.061 55.864C217.061 56.152 216.96 56.3973 216.757 56.6C216.565 56.792 216.32 56.888 216.021 56.888ZM224.45 58.44C225.527 58.44 226.381 58.7547 227.01 59.384C227.65 60.0027 227.97 60.9147 227.97 62.12V67H226.434V62.296C226.434 61.4747 226.237 60.856 225.842 60.44C225.447 60.024 224.882 59.816 224.146 59.816C223.314 59.816 222.658 60.0613 222.178 60.552C221.698 61.032 221.458 61.7253 221.458 62.632V67H219.922V58.52H221.394V59.8C221.703 59.3627 222.119 59.0267 222.642 58.792C223.175 58.5573 223.778 58.44 224.45 58.44ZM240.102 55.8C241.552 55.8 242.694 56.1467 243.526 56.84C244.358 57.5333 244.774 58.488 244.774 59.704C244.774 60.92 244.358 61.8747 243.526 62.568C242.694 63.2613 241.552 63.608 240.102 63.608H237.334V67H235.734V55.8H240.102ZM240.054 62.216C241.067 62.216 241.84 62.0027 242.374 61.576C242.907 61.1387 243.174 60.5147 243.174 59.704C243.174 58.8933 242.907 58.2747 242.374 57.848C241.84 57.4107 241.067 57.192 240.054 57.192H237.334V62.216H240.054ZM254.733 62.808C254.733 62.9253 254.722 63.08 254.701 63.272H247.821C247.917 64.0187 248.242 64.6213 248.797 65.08C249.362 65.528 250.061 65.752 250.893 65.752C251.906 65.752 252.722 65.4107 253.341 64.728L254.189 65.72C253.805 66.168 253.325 66.5093 252.749 66.744C252.184 66.9787 251.549 67.096 250.845 67.096C249.949 67.096 249.154 66.9147 248.461 66.552C247.768 66.1787 247.229 65.6613 246.845 65C246.472 64.3387 246.285 63.592 246.285 62.76C246.285 61.9387 246.466 61.1973 246.829 60.536C247.202 59.8747 247.709 59.3627 248.349 59C249 58.6267 249.73 58.44 250.541 58.44C251.352 58.44 252.072 58.6267 252.701 59C253.341 59.3627 253.837 59.8747 254.189 60.536C254.552 61.1973 254.733 61.9547 254.733 62.808ZM250.541 59.736C249.805 59.736 249.186 59.96 248.685 60.408C248.194 60.856 247.906 61.4427 247.821 62.168H253.261C253.176 61.4533 252.882 60.872 252.381 60.424C251.89 59.9653 251.277 59.736 250.541 59.736ZM260.698 67.096C259.855 67.096 259.098 66.9093 258.426 66.536C257.754 66.1627 257.226 65.6507 256.842 65C256.468 64.3387 256.282 63.592 256.282 62.76C256.282 61.928 256.468 61.1867 256.842 60.536C257.226 59.8747 257.754 59.3627 258.426 59C259.098 58.6267 259.855 58.44 260.698 58.44C261.54 58.44 262.292 58.6267 262.954 59C263.626 59.3627 264.148 59.8747 264.522 60.536C264.906 61.1867 265.098 61.928 265.098 62.76C265.098 63.592 264.906 64.3387 264.522 65C264.148 65.6507 263.626 66.1627 262.954 66.536C262.292 66.9093 261.54 67.096 260.698 67.096ZM260.698 65.752C261.242 65.752 261.727 65.6293 262.154 65.384C262.591 65.128 262.932 64.776 263.178 64.328C263.423 63.8693 263.546 63.3467 263.546 62.76C263.546 62.1733 263.423 61.656 263.178 61.208C262.932 60.7493 262.591 60.3973 262.154 60.152C261.727 59.9067 261.242 59.784 260.698 59.784C260.154 59.784 259.663 59.9067 259.226 60.152C258.799 60.3973 258.458 60.7493 258.202 61.208C257.956 61.656 257.834 62.1733 257.834 62.76C257.834 63.3467 257.956 63.8693 258.202 64.328C258.458 64.776 258.799 65.128 259.226 65.384C259.663 65.6293 260.154 65.752 260.698 65.752ZM271.918 58.44C272.739 58.44 273.475 58.6213 274.126 58.984C274.777 59.3467 275.283 59.8533 275.646 60.504C276.019 61.1547 276.206 61.9067 276.206 62.76C276.206 63.6133 276.019 64.3707 275.646 65.032C275.283 65.6827 274.777 66.1893 274.126 66.552C273.475 66.9147 272.739 67.096 271.918 67.096C271.31 67.096 270.75 66.9787 270.238 66.744C269.737 66.5093 269.31 66.168 268.958 65.72V70.104H267.422V58.52H268.894V59.864C269.235 59.3947 269.667 59.0427 270.19 58.808C270.713 58.5627 271.289 58.44 271.918 58.44ZM271.79 65.752C272.334 65.752 272.819 65.6293 273.246 65.384C273.683 65.128 274.025 64.776 274.27 64.328C274.526 63.8693 274.654 63.3467 274.654 62.76C274.654 62.1733 274.526 61.656 274.27 61.208C274.025 60.7493 273.683 60.3973 273.246 60.152C272.819 59.9067 272.334 59.784 271.79 59.784C271.257 59.784 270.771 59.912 270.334 60.168C269.907 60.4133 269.566 60.76 269.31 61.208C269.065 61.656 268.942 62.1733 268.942 62.76C268.942 63.3467 269.065 63.8693 269.31 64.328C269.555 64.776 269.897 65.128 270.334 65.384C270.771 65.6293 271.257 65.752 271.79 65.752ZM278.528 55.128H280.064V67H278.528V55.128ZM290.861 62.808C290.861 62.9253 290.85 63.08 290.829 63.272H283.949C284.045 64.0187 284.37 64.6213 284.925 65.08C285.49 65.528 286.189 65.752 287.021 65.752C288.034 65.752 288.85 65.4107 289.469 64.728L290.317 65.72C289.933 66.168 289.453 66.5093 288.877 66.744C288.312 66.9787 287.677 67.096 286.973 67.096C286.077 67.096 285.282 66.9147 284.589 66.552C283.896 66.1787 283.357 65.6613 282.973 65C282.6 64.3387 282.413 63.592 282.413 62.76C282.413 61.9387 282.594 61.1973 282.957 60.536C283.33 59.8747 283.837 59.3627 284.477 59C285.128 58.6267 285.858 58.44 286.669 58.44C287.48 58.44 288.2 58.6267 288.829 59C289.469 59.3627 289.965 59.8747 290.317 60.536C290.68 61.1973 290.861 61.9547 290.861 62.808ZM286.669 59.736C285.933 59.736 285.314 59.96 284.813 60.408C284.322 60.856 284.034 61.4427 283.949 62.168H289.389C289.304 61.4533 289.01 60.872 288.509 60.424C288.018 59.9653 287.405 59.736 286.669 59.736ZM293.547 55.032C293.845 55.032 294.091 55.1387 294.283 55.352C294.485 55.5547 294.587 55.8107 294.587 56.12C294.587 56.28 294.571 56.44 294.539 56.6C294.507 56.7493 294.437 56.968 294.331 57.256L293.563 59.496H292.555L293.147 57.112C292.944 57.0373 292.779 56.9147 292.651 56.744C292.533 56.5627 292.475 56.3547 292.475 56.12C292.475 55.8 292.576 55.5387 292.779 55.336C292.981 55.1333 293.237 55.032 293.547 55.032ZM299.154 67.096C298.461 67.096 297.794 67.0053 297.154 66.824C296.514 66.632 296.013 66.392 295.65 66.104L296.29 64.888C296.663 65.1547 297.117 65.368 297.65 65.528C298.183 65.688 298.722 65.768 299.266 65.768C300.61 65.768 301.282 65.384 301.282 64.616C301.282 64.36 301.191 64.1573 301.01 64.008C300.829 63.8587 300.599 63.752 300.322 63.688C300.055 63.6133 299.671 63.5333 299.17 63.448C298.487 63.3413 297.927 63.2187 297.49 63.08C297.063 62.9413 296.695 62.7067 296.386 62.376C296.077 62.0453 295.922 61.5813 295.922 60.984C295.922 60.216 296.242 59.6027 296.882 59.144C297.522 58.6747 298.381 58.44 299.458 58.44C300.023 58.44 300.589 58.5093 301.154 58.648C301.719 58.7867 302.183 58.9733 302.546 59.208L301.89 60.424C301.197 59.976 300.381 59.752 299.442 59.752C298.791 59.752 298.295 59.8587 297.954 60.072C297.613 60.2853 297.442 60.568 297.442 60.92C297.442 61.1973 297.538 61.416 297.73 61.576C297.922 61.736 298.157 61.8533 298.434 61.928C298.722 62.0027 299.122 62.088 299.634 62.184C300.317 62.3013 300.866 62.4293 301.282 62.568C301.709 62.696 302.071 62.92 302.37 63.24C302.669 63.56 302.818 64.008 302.818 64.584C302.818 65.352 302.487 65.9653 301.826 66.424C301.175 66.872 300.285 67.096 299.154 67.096ZM309.659 55.8H311.259V65.608H317.323V67H309.659V55.8ZM319.135 58.52H320.671V67H319.135V58.52ZM319.903 56.888C319.604 56.888 319.353 56.792 319.151 56.6C318.959 56.408 318.863 56.1733 318.863 55.896C318.863 55.6187 318.959 55.384 319.151 55.192C319.353 54.9893 319.604 54.888 319.903 54.888C320.201 54.888 320.447 54.984 320.639 55.176C320.841 55.3573 320.943 55.5867 320.943 55.864C320.943 56.152 320.841 56.3973 320.639 56.6C320.447 56.792 320.201 56.888 319.903 56.888ZM331.307 58.52L327.595 67H326.027L322.315 58.52H323.915L326.827 65.32L329.803 58.52H331.307ZM340.37 62.808C340.37 62.9253 340.36 63.08 340.338 63.272H333.458C333.554 64.0187 333.88 64.6213 334.434 65.08C335 65.528 335.698 65.752 336.53 65.752C337.544 65.752 338.36 65.4107 338.978 64.728L339.826 65.72C339.442 66.168 338.962 66.5093 338.386 66.744C337.821 66.9787 337.186 67.096 336.482 67.096C335.586 67.096 334.792 66.9147 334.098 66.552C333.405 66.1787 332.866 65.6613 332.482 65C332.109 64.3387 331.922 63.592 331.922 62.76C331.922 61.9387 332.104 61.1973 332.466 60.536C332.84 59.8747 333.346 59.3627 333.986 59C334.637 58.6267 335.368 58.44 336.178 58.44C336.989 58.44 337.709 58.6267 338.338 59C338.978 59.3627 339.474 59.8747 339.826 60.536C340.189 61.1973 340.37 61.9547 340.37 62.808ZM336.178 59.736C335.442 59.736 334.824 59.96 334.322 60.408C333.832 60.856 333.544 61.4427 333.458 62.168H338.898C338.813 61.4533 338.52 60.872 338.018 60.424C337.528 59.9653 336.914 59.736 336.178 59.736ZM345.135 67.096C344.442 67.096 343.775 67.0053 343.135 66.824C342.495 66.632 341.994 66.392 341.631 66.104L342.271 64.888C342.645 65.1547 343.098 65.368 343.631 65.528C344.165 65.688 344.703 65.768 345.247 65.768C346.591 65.768 347.263 65.384 347.263 64.616C347.263 64.36 347.173 64.1573 346.991 64.008C346.81 63.8587 346.581 63.752 346.303 63.688C346.037 63.6133 345.653 63.5333 345.151 63.448C344.469 63.3413 343.909 63.2187 343.471 63.08C343.045 62.9413 342.677 62.7067 342.367 62.376C342.058 62.0453 341.903 61.5813 341.903 60.984C341.903 60.216 342.223 59.6027 342.863 59.144C343.503 58.6747 344.362 58.44 345.439 58.44C346.005 58.44 346.57 58.5093 347.135 58.648C347.701 58.7867 348.165 58.9733 348.527 59.208L347.871 60.424C347.178 59.976 346.362 59.752 345.423 59.752C344.773 59.752 344.277 59.8587 343.935 60.072C343.594 60.2853 343.423 60.568 343.423 60.92C343.423 61.1973 343.519 61.416 343.711 61.576C343.903 61.736 344.138 61.8533 344.415 61.928C344.703 62.0027 345.103 62.088 345.615 62.184C346.298 62.3013 346.847 62.4293 347.263 62.568C347.69 62.696 348.053 62.92 348.351 63.24C348.65 63.56 348.799 64.008 348.799 64.584C348.799 65.352 348.469 65.9653 347.807 66.424C347.157 66.872 346.266 67.096 345.135 67.096Z" fill="#047CC7"/>
</g>
<defs>
<clipPath id="clip0">
<rect width="71" height="351" fill="white" transform="translate(351) rotate(90)"/>
</clipPath>
</defs>
</svg>
